#!OML:ASF E:\acrobat2\Project_11_07_03\Capture day 1\Session 1\Acrobat.ASF
:FULLY-SPECIFIED
:DEGREES
17
root 6.29373 18.1848 4.15273 3.33741 -0.0578473 1.33901
lowerback -8.14797 1.08428 0.549243
upperback -2.35344 1.43382 -1.40742
thorax 2.18206 0.714762 -1.61866
lowerneck 2.77626 -2.63032 -4.16157
upperneck 2.55784 -3.7245 7.17017
head 0.55754 -1.88669 3.02365
rclavicle -1.2188e-014 1.64991e-014
rhumerus -38.5363 -7.66798 -86.2558
rradius 22.8068
rwrist 7.9343
rhand -5.74185 -39.0823
rfingers 7.12502
rthumb 20.0805 -68.0646
lclavicle -1.2188e-014 1.64991e-014
lhumerus -31.9621 -0.191475 88.2571
lradius 18.4369
lwrist 3.01645
lhand 0.25355 -16.8918
lfingers 7.12502
lthumb 25.8332 11.3739
rfemur 7.05182 11.4735 17.2782
rtibia -2.71958
rfoot -17.9076 -22.6035
rtoes 6.02699
lfemur 5.17185 -2.85779 -14.9911
ltibia -2.27435
lfoot -8.01538 -1.87977
ltoes 26.4357
18
root 6.29563 18.1857 4.15487 3.39554 -0.0405941 1.39454
lowerback -8.15053 1.05043 0.489051
upperback -2.3481 1.39344 -1.3955
thorax 2.18596 0.694564 -1.57645
lowerneck 2.62431 -2.61928 -4.41011
upperneck 2.56633 -3.71573 7.37084
head 0.596066 -1.88131 3.13665
rclavicle 4.22417e-015 -3.77691e-015
rhumerus -38.8834 -7.92209 -86.0173
rradius 22.7928
rwrist 7.82667
rhand -5.81926 -39.1426
rfingers 7.12502
rthumb 20.0061 -68.1327
lclavicle 4.22417e-015 -3.77691e-015
lhumerus -32.2833 0.35444 87.9396
lradius 18.6942
lwrist 2.92453
lhand 0.512461 -16.7484
lfingers 7.12502
lthumb 26.0811 11.4809
rfemur 6.95961 11.3161 17.1608
rtibia -2.65151
rfoot -17.8075 -22.5509
rtoes 5.32089
lfemur 5.09481 -2.88215 -15.075
ltibia -2.24209
lfoot -8.07654 -1.85318
ltoes 26.5082
19
root 6.29753 18.1866 4.1588 3.41767 -0.0642244 1.36892
lowerback -8.13739 1.06723 0.543688
upperback -2.29762 1.41212 -1.40588
thorax 2.23296 0.704474 -1.61574
lowerneck 2.54216 -2.705 -4.36696
upperneck 2.37324 -3.81646 7.31563
head 0.553312 -1.93171 3.10904
rclavicle -8.29926e-015 1.0138e-014
rhumerus -39.045 -8.20559 -85.8284
rradius 22.6375
rwrist 7.73386
rhand -5.50844 -39.559
rfingers 7.12502
rthumb 20.3048 -68.5176
lclavicle -8.29926e-015 1.0138e-014
lhumerus -32.4476 0.676319 87.6349
lradius 18.9069
lwrist 2.86008
lhand 0.905868 -16.6942
lfingers 7.12502
lthumb 26.4577 11.479
rfemur 6.90834 11.2016 17.1555
rtibia -2.58433
rfoot -17.7501 -22.4648
rtoes 4.96572
lfemur 5.07546 -2.92968 -15.0706
ltibia -2.21657
lfoot -8.14605 -1.77978
ltoes 26.6434
20
root 6.29572 18.1851 4.16284 3.43458 -0.158892 1.13304
lowerback -8.10448 1.13537 0.751172
upperback -2.26151 1.48437 -1.3397
thorax 2.25778 0.741342 -1.657
lowerneck 2.61713 -2.87825 -4.13488
upperneck 2.06096 -4.02398 6.96996
head 0.440925 -2.0383 2.95053
rclavicle 1.46976e-014 -2.5842e-015
rhumerus -39.1081 -8.5285 -85.5906
rradius 22.3405
rwrist 7.82965
rhand -5.26974 -39.9542
rfingers 7.12502
rthumb 20.5342 -68.8883
lclavicle 1.46976e-014 -2.5842e-015
lhumerus -32.4736 0.43874 87.6247
lradius 18.9612
lwrist 3.17545
lhand 0.930766 -16.7123
lfingers 7.12502
lthumb 26.4816 11.4573
rfemur 6.86131 11.5014 17.494
rtibia -2.5268
rfoot -17.9855 -22.5577
rtoes 5.94805
lfemur 5.07538 -2.95931 -14.7554
ltibia -2.20513
lfoot -8.217 -1.6965
ltoes 26.6645
21
root 6.29631 18.1851 4.1675 3.43777 -0.191383 1.01913
lowerback -8.12893 1.19065 0.879693
upperback -2.19797 1.54749 -1.32753
thorax 2.34216 0.774042 -1.70918
lowerneck 2.45151 -2.95217 -4.11911
upperneck 2.13778 -4.12154 6.93218
head 0.49871 -2.08331 2.93081
rclavicle -4.08751e-015 7.55382e-015
rhumerus -39.1067 -8.94122 -85.3186
rradius 21.9653
rwrist 8.28925
rhand -5.52374 -39.7569
rfingers 7.12502
rthumb 20.2901 -68.717
lclavicle -4.08751e-015 7.55382e-015
lhumerus -32.3348 0.00448971 87.6748
lradius 18.7954
lwrist 3.50426
lhand 0.758782 -16.6454
lfingers 7.12502
lthumb 26.317 11.5489
rfemur 6.88 11.6673 17.6622
rtibia -2.56029
rfoot -18.1321 -22.615
rtoes 6.67845
lfemur 5.05787 -2.9235 -14.6115
ltibia -2.15154
lfoot -8.24263 -1.7323
ltoes 26.3296
22
root 6.29698 18.1855 4.17367 3.44406 -0.172499 1.0195
lowerback -8.17702 1.23039 0.917818
upperback -2.13595 1.59895 -1.37757
thorax 2.43724 0.800821 -1.77545
lowerneck 2.01081 -2.94935 -4.12403
upperneck 2.61771 -4.13123 6.98655
head 0.729723 -2.07564 2.93908
rclavicle 1.20016e-014 -2.18663e-015
rhumerus -39.0875 -9.47216 -85.0149
rradius 21.5479
rwrist 9.00829
rhand -5.87385 -39.1356
rfingers 7.12502
rthumb 19.9536 -68.1312
lclavicle 1.20016e-014 -2.18663e-015
lhumerus -32.1706 -0.270214 87.5794
lradius 18.6424
lwrist 3.62444
lhand 0.909479 -16.3092
lfingers 7.12502
lthumb 26.4612 11.8635
rfemur 6.94509 11.7512 17.6902
rtibia -2.64835
rfoot -18.2564 -22.6701
rtoes 6.96915
lfemur 5.02335 -2.88387 -14.6205
ltibia -2.0693
lfoot -8.22258 -1.73446
ltoes 25.7286
